<svg width="67" height="68" viewBox="0 0 67 68" fill="none" xmlns="http://www.w3.org/2000/svg">
<path d="M29.959 5.36061L41.4984 16.6787L24.6514 33.2035L13.1141 21.8856C12.9989 21.7729 12.8717 21.6841 12.746 21.59L29.6583 5C29.7537 5.12335 29.8452 5.24843 29.959 5.36061ZM35.6771 25.6067C36.0147 25.2767 36.5596 25.2675 36.9079 25.5882L66.7122 53.0948C66.885 53.2551 66.9846 53.4781 66.9882 53.7124C66.992 53.948 66.8986 54.1731 66.7311 54.339L61.9698 59.0098C61.7991 59.1757 61.57 59.2678 61.3308 59.264C61.0915 59.2605 60.8639 59.1625 60.7006 58.9914L32.6512 29.7631C32.3252 29.4222 32.3323 28.8876 32.6705 28.5558L35.6771 25.6067ZM8.51018 57.9989C8.51018 57.7582 8.61016 57.5302 8.79242 57.3585C8.97492 57.1888 9.21734 57.0932 9.47363 56.7325H39.0208C39.2741 57.0932 39.5217 57.1906 39.7012 57.3585C39.8813 57.5283 39.9834 57.7619 39.9834 57.9989V61.0939H43.3562V64.187H48.4952V67.2811H0V64.187H5.13739V61.0939H8.51018V57.9989Z" fill="#03C5FB"/>
<path d="M29.7129 0.988355C31.1296 -0.329452 33.4281 -0.329452 34.8457 0.988355L46.8148 12.1166C48.2322 13.4344 48.2322 15.5711 46.8148 16.8889C45.398 18.205 43.1001 18.205 41.6832 16.8889L41.5176 16.7326L29.7129 5.75897C29.5965 5.6502 29.5028 5.52893 29.4053 5.40933C28.3199 4.0865 28.4137 2.19751 29.7129 0.988355ZM8.12429 20.0855C9.4981 18.8765 11.6484 18.7903 13.1537 19.799C13.2898 19.8902 13.4273 19.9763 13.5519 20.0855L26.0338 31.0589L26.2107 31.2134C27.7099 32.5313 27.7099 34.668 26.2107 35.9857C24.7115 37.3019 22.2814 37.3019 20.7831 35.9857L8.12429 24.8562C6.62524 23.5385 6.62524 21.4033 8.12429 20.0855Z" fill="#01FD97"/>
</svg>
